<?xml version="1.0" encoding="UTF-8"?>
<svg width="14px" height="14px" viewBox="0 0 14 14" version="1.1" xmlns="http://www.w3.org/2000/svg" xmlns:xlink="http://www.w3.org/1999/xlink">
    <!-- Generator: Sketch 43.1 (39012) - http://www.bohemiancoding.com/sketch -->
    <title>spinner</title>
    <desc>Created with Sketch.</desc>
    <defs></defs>
    <g id="Page-1" stroke="none" stroke-width="1" fill="none" fill-rule="evenodd">
        <path d="M13.75,7 C13.75,7.91667125 13.5716164,8.7916625 13.2148438,9.625 C12.8580711,10.4583375 12.3789093,11.1757782 11.7773438,11.7773438 C11.1757782,12.3789093 10.4583375,12.8580711 9.625,13.2148438 C8.7916625,13.5716164 7.91667125,13.75 7,13.75 C6.08332875,13.75 5.2083375,13.5716164 4.375,13.2148438 C3.5416625,12.8580711 2.82422176,12.3789093 2.22265625,11.7773438 C1.62109074,11.1757782 1.14192887,10.4583375 0.78515625,9.625 C0.428383633,8.7916625 0.25,7.91667125 0.25,7 C0.25,5.89061945 0.502601641,4.85286941 1.0078125,3.88671875 C1.51302336,2.92056809 2.20312062,2.12500313 3.078125,1.5 C3.95312938,0.874996875 4.92707797,0.481771641 6,0.3203125 L6,2.1015625 C4.84895258,2.33593867 3.89453504,2.91145375 3.13671875,3.828125 C2.37890246,4.74479625 2,5.80207734 2,7 C2,7.67708672 2.13281117,8.32421566 2.3984375,8.94140625 C2.66406383,9.55859684 3.01952902,10.0898415 3.46484375,10.5351562 C3.91015848,10.980471 4.44140316,11.3359362 5.05859375,11.6015625 C5.67578434,11.8671888 6.32291328,12 7,12 C7.67708672,12 8.32421566,11.8671888 8.94140625,11.6015625 C9.55859684,11.3359362 10.0898415,10.980471 10.5351562,10.5351562 C10.980471,10.0898415 11.3359362,9.55859684 11.6015625,8.94140625 C11.8671888,8.32421566 12,7.67708672 12,7 C12,5.80207734 11.6210975,4.74479625 10.8632812,3.828125 C10.105465,2.91145375 9.15104742,2.33593867 8,2.1015625 L8,0.3203125 C9.07292203,0.481771641 10.0468706,0.874996875 10.921875,1.5 C11.7968794,2.12500313 12.4869766,2.92056809 12.9921875,3.88671875 C13.4973984,4.85286941 13.75,5.89061945 13.75,7 Z" id="spinner" fill="#FFFFFF"></path>
    </g>
</svg>